<svg width="24" height="24" viewBox="0 0 24 24" fill="none" xmlns="http://www.w3.org/2000/svg">
<g clip-path="url(#clip0_3303_5308)">
<path d="M20.5 4.5V14.5C20.5 15.0304 20.2893 15.5391 19.9142 15.9142C19.5391 16.2893 19.0304 16.5 18.5 16.5H2.5C1.96957 16.5 1.46086 16.2893 1.08579 15.9142C0.710714 15.5391 0.5 15.0304 0.5 14.5V4.5H20.5Z" fill="#FFC49F"/>
<path d="M4.5 16.5L16.5 4.5H0.5V14.5C0.5 15.0304 0.710714 15.5391 1.08579 15.9142C1.46086 16.2893 1.96957 16.5 2.5 16.5H4.5Z" fill="#FFEDD8"/>
<path d="M20.5 4.5H0.5V2.5C0.5 1.96957 0.710714 1.46086 1.08579 1.08579C1.46086 0.710714 1.96957 0.5 2.5 0.5H18.5C19.0304 0.5 19.5391 0.710714 19.9142 1.08579C20.2893 1.46086 20.5 1.96957 20.5 2.5V4.5Z" fill="white"/>
<path d="M0.517029 4.50403H20.517" stroke="#F56B30" stroke-linecap="round" stroke-linejoin="round"/>
<path d="M3.51703 2.25598C3.46758 2.25598 3.41925 2.27064 3.37814 2.29811C3.33702 2.32558 3.30498 2.36463 3.28606 2.41031C3.26714 2.45599 3.26219 2.50626 3.27183 2.55475C3.28148 2.60325 3.30529 2.64779 3.34025 2.68276C3.37522 2.71772 3.41976 2.74153 3.46826 2.75118C3.51675 2.76082 3.56702 2.75587 3.6127 2.73695C3.65838 2.71803 3.69743 2.68599 3.7249 2.64487C3.75237 2.60376 3.76703 2.55543 3.76703 2.50598C3.76703 2.43968 3.74069 2.37609 3.69381 2.3292C3.64692 2.28232 3.58333 2.25598 3.51703 2.25598Z" stroke="#F56B30" stroke-linecap="round" stroke-linejoin="round"/>
<path d="M5.51703 2.25598C5.46758 2.25598 5.41925 2.27064 5.37814 2.29811C5.33702 2.32558 5.30498 2.36463 5.28606 2.41031C5.26714 2.45599 5.26219 2.50626 5.27183 2.55475C5.28148 2.60325 5.30529 2.64779 5.34025 2.68276C5.37522 2.71772 5.41976 2.74153 5.46826 2.75118C5.51675 2.76082 5.56702 2.75587 5.6127 2.73695C5.65838 2.71803 5.69743 2.68599 5.7249 2.64487C5.75237 2.60376 5.76703 2.55543 5.76703 2.50598C5.76703 2.43968 5.74069 2.37609 5.69381 2.3292C5.64692 2.28232 5.58333 2.25598 5.51703 2.25598Z" stroke="#F56B30" stroke-linecap="round" stroke-linejoin="round"/>
<path d="M7.51703 2.25598C7.46758 2.25598 7.41925 2.27064 7.37814 2.29811C7.33702 2.32558 7.30498 2.36463 7.28606 2.41031C7.26714 2.45599 7.26219 2.50626 7.27183 2.55475C7.28148 2.60325 7.30529 2.64779 7.34025 2.68276C7.37522 2.71772 7.41976 2.74153 7.46826 2.75118C7.51675 2.76082 7.56702 2.75587 7.6127 2.73695C7.65838 2.71803 7.69743 2.68599 7.7249 2.64487C7.75237 2.60376 7.76703 2.55543 7.76703 2.50598C7.76703 2.43968 7.74069 2.37609 7.69381 2.3292C7.64692 2.28232 7.58333 2.25598 7.51703 2.25598Z" stroke="#F56B30" stroke-linecap="round" stroke-linejoin="round"/>
<path d="M9.51703 16.5H2.51703C1.9866 16.5 1.47789 16.2893 1.10282 15.9142C0.727742 15.5391 0.517029 15.0304 0.517029 14.5V2.5C0.517029 1.96957 0.727742 1.46086 1.10282 1.08579C1.47789 0.710714 1.9866 0.5 2.51703 0.5H18.517C19.0475 0.5 19.5562 0.710714 19.9312 1.08579C20.3063 1.46086 20.517 1.96957 20.517 2.5V9.5" stroke="#F56B30" stroke-linecap="round" stroke-linejoin="round"/>
<path d="M11.518 23.505L15.718 22.305L12.718 19.305L11.518 23.505Z" fill="#FFC49F" stroke="#F56B30" stroke-linecap="round" stroke-linejoin="round"/>
<path d="M22.9 12.126C22.7031 11.9289 22.4693 11.7725 22.2119 11.6658C21.9545 11.5591 21.6786 11.5042 21.4 11.5042C21.1214 11.5042 20.8455 11.5591 20.5881 11.6658C20.3307 11.7725 20.0969 11.9289 19.9 12.126L19 13.026L22 16.026L22.9 15.126C23.0971 14.9291 23.2535 14.6953 23.3602 14.4379C23.4669 14.1805 23.5219 13.9046 23.5219 13.626C23.5219 13.3474 23.4669 13.0715 23.3602 12.8141C23.2535 12.5567 23.0971 12.3229 22.9 12.126Z" fill="#FFC49F" stroke="#F56B30" stroke-linecap="round" stroke-linejoin="round"/>
<path d="M12.719 19.305L18.997 13.026L21.997 16.026L15.719 22.306L12.719 19.305Z" fill="#FFC49F" stroke="#F56B30" stroke-linecap="round" stroke-linejoin="round"/>
</g>
<defs>
<clipPath id="clip0_3303_5308">
<rect width="24" height="24" fill="white"/>
</clipPath>
</defs>
</svg>
