<svg width="106" height="22" viewBox="0 0 106 22" fill="none" xmlns="http://www.w3.org/2000/svg">
<path d="M28.6595 21.8952C24.92 21.8952 24.6229 19.0469 24.6229 18.2081C24.6229 17.2121 24.8501 15.3598 27.279 14.4686C29.7079 13.5774 30.2321 13.4726 31.9621 12.9309V12.5115C31.9621 11.6728 31.9621 11.5155 31.7699 10.9738C31.4728 10.0127 30.5292 9.36616 29.2186 9.36616C27.978 9.36616 26.9121 10.0651 26.4228 11.0961L25.7238 10.6767C26.1432 9.139 27.7333 7.60127 30.4593 7.60127C32.3465 7.60127 33.6571 8.14297 34.426 9.33121C35.0026 10.2923 35.0725 11.5854 35.0725 12.8959C35.0725 14.0842 35.0026 15.3948 35.0026 16.4607C35.0026 17.1596 34.9327 17.8411 34.9327 18.2256C34.9327 19.1867 35.1249 19.9555 35.8938 19.9555C36.2433 19.9555 36.3132 19.8332 36.5928 19.6585L37.0121 20.2002C36.3132 21.1612 35.4744 21.9301 34.0939 21.9301C33.028 21.9301 32.2592 21.3884 31.9446 20.5147C31.5078 21.1263 30.3719 21.8952 28.6595 21.8952ZM31.9621 14.6434C30.1273 15.1851 29.4633 15.4821 28.9391 15.7617C28.1003 16.1811 27.7508 16.95 27.7508 17.946C27.7508 18.7149 28.0479 19.9555 29.8302 19.9555C30.4069 19.9555 31.2456 19.8332 32.0145 19.309V14.6259H31.9621V14.6434ZM1.08521 21.1612C1.08521 19.7808 1.08521 18.61 0.962891 17.1946H1.80165C1.80165 18.0858 2.02882 18.7323 2.4482 19.1517C3.02484 19.7983 4.4053 20.2176 5.64597 20.2176C8.24962 20.2176 9.49029 19.2216 9.49029 17.0723C9.49029 15.2375 8.37194 14.4686 6.83422 13.3852L6.60705 13.193L4.947 12.0747C2.64041 10.5369 1.45217 9.34869 1.45217 6.91978C1.45217 5.73153 1.92397 1.81731 7.67298 1.81731C9.15828 1.81731 11.0455 2.00953 12.1813 2.1668C12.1813 2.35901 12.1114 3.23272 12.1114 4.00159C12.1114 4.89277 12.1114 5.11994 12.1813 6.18586H11.4823C11.4823 5.22478 11.1853 4.64813 10.7834 4.22875C10.2417 3.68705 9.01849 3.38999 7.70793 3.38999C4.63247 3.38999 4.28299 4.92772 4.28299 6.11597C4.28299 7.72359 5.12175 8.30024 6.93906 9.48848L9.01849 10.8689C10.7834 12.0572 12.4434 13.1755 12.4434 16.1461C12.4434 21.1263 7.76035 21.6505 5.80324 21.6505C4.0034 21.8952 2.50062 21.633 1.08521 21.1612ZM38.3052 8.49245C39.0042 8.56235 40.0701 8.49245 41.1011 8.30024C41.9923 8.10802 42.2893 8.00318 42.9359 7.72359L43.2329 7.9158V8.98173C43.9319 8.44003 45.3124 7.67117 47.2695 7.67117C49.7683 7.67117 51.3759 8.85941 51.8302 10.9388C51.9526 11.4805 52.0225 12.7037 52.0225 13.4376V17.4742C52.0225 19.7284 52.1448 20.3924 52.5642 20.7943C52.7913 20.9865 53.2631 21.2137 53.9446 21.2137V21.8602C53.0534 21.7903 51.4458 21.7379 50.5197 21.7379C49.279 21.7379 47.8636 21.8078 47.0947 21.8602V21.2137C47.7937 21.1438 48.2131 20.9166 48.4752 20.7419C48.8946 20.3225 48.947 19.5536 49.0169 17.8237C49.0169 17.282 49.0868 16.216 49.0868 15.4472C49.0868 14.4512 49.0868 13.3678 48.9645 12.3018C48.7723 10.5369 47.8461 9.69817 46.0463 9.69817C44.8056 9.69817 44.0368 9.99523 43.4426 10.2748V17.5091C43.4426 19.7633 43.5649 20.4273 43.9843 20.8292C44.2115 21.0214 44.7532 21.2486 45.2949 21.2486V21.8952C44.1765 21.8253 42.7961 21.7728 41.9224 21.7728C40.0876 21.7728 39.4935 21.8427 38.4275 21.8952V21.2137C39.0042 21.2137 39.6158 20.9865 39.9128 20.637C40.3322 20.1652 40.3846 18.977 40.3846 16.6704V12.5639C40.3846 10.834 40.3148 10.135 40.0876 9.76807C39.8954 9.47101 39.441 9.22637 38.48 9.22637V8.45751H38.3576V8.49245H38.3052ZM55.4474 21.1263C56.024 21.1263 56.6356 20.9341 56.9327 20.5496C57.3521 20.0778 57.4045 18.8896 57.4045 16.583V9.6807H55.6396V8.91183C56.4085 8.61477 57.055 8.26529 57.4045 7.95075C57.4045 6.71009 57.4744 5.15488 57.6317 4.2637C58.1734 1.41541 60.0082 0 63.136 0C64.5165 0 65.7921 0.471802 66.6309 1.11835L66.7008 1.41541L65.3203 3.30262H64.9708C64.499 2.18427 63.7826 1.53773 62.5419 1.53773C62.1225 1.53773 61.5459 1.66005 61.1615 2.00953C60.5848 2.58618 60.4625 3.49484 60.4625 5.2772V7.93328H63.5379V9.66322H60.4625V17.3169C60.4625 19.1517 60.5324 20.0429 60.7595 20.3924C61.109 20.969 62.3672 21.0389 62.9438 21.0389V21.7379C61.9478 21.668 60.3402 21.6156 59.2043 21.6156C57.4744 21.6156 56.3561 21.6855 55.4649 21.7379L55.4474 21.1263ZM71.3314 22C67.1376 22 64.6388 19.3963 64.6388 15.0103C64.6388 11.5854 66.4736 7.60127 71.6285 7.60127C75.8223 7.60127 78.3211 10.2049 78.3211 14.5909C78.3211 18.0159 76.4688 22 71.3314 22ZM71.5062 9.19142C70.6674 9.19142 70.0209 9.41858 69.5491 9.83797C68.4307 10.799 67.889 12.4416 67.889 14.8705C67.889 15.8316 68.0812 20.4448 71.4538 20.4448C72.2925 20.4448 72.9391 20.2176 73.4109 19.7983C74.5292 18.8372 75.0709 17.1946 75.0709 14.7657C75.0534 13.8221 74.8962 9.19142 71.5062 9.19142ZM79.7365 8.42256C80.6976 8.49245 81.6936 8.35266 82.7595 8.19539C83.5983 8.07307 84.14 7.89833 84.4196 7.72359L84.6468 7.84591V9.03415C85.2933 8.38761 86.3767 7.72359 87.8445 7.72359C88.9105 7.72359 89.6094 8.02065 90.2734 8.56235V8.98173L89.0852 11.1311H88.5086C88.1591 10.4845 87.4426 9.89039 86.202 9.89039C85.6253 9.89039 85.136 10.0127 84.7167 10.3098V17.3693C84.7167 19.2041 84.7865 20.0254 85.0137 20.3924C85.3632 20.969 86.5514 21.0389 87.198 20.969V21.7379C86.2369 21.668 84.5943 21.6156 83.4585 21.6156C82.1479 21.6156 80.8024 21.6156 79.719 21.7379V21.0389C80.4879 20.969 80.9073 20.8118 81.2043 20.4623C81.6237 19.9905 81.6761 18.8546 81.6761 16.4956V12.6513C81.6761 10.9214 81.6761 10.2224 81.3791 9.85544C81.1519 9.55838 80.6801 9.38364 79.7715 9.38364V8.49245L79.7365 8.42256ZM99.1329 0.838759C99.9716 0.838759 101.02 0.646544 102.401 0.419379C103.169 0.29706 103.641 0.122318 103.886 0.0698957L104.113 0.192214C103.991 1.31056 103.991 3.87927 103.991 5.69658V16.95C103.991 18.61 103.991 19.6759 104.218 20.0254C104.445 20.3225 104.917 20.5671 105.825 20.5671V21.2661C104.934 21.2661 103.938 21.3884 102.872 21.5631C102.173 21.6855 101.632 21.7903 101.335 21.9126L100.985 21.7903V20.6021C100.286 21.1438 98.9756 21.9126 97.1408 21.9126C93.3489 21.9126 90.92 19.309 90.92 15.22C90.92 13.8396 91.1471 12.6164 91.6189 11.4805C92.8072 8.98173 95.1837 7.56632 98.1893 7.56632C99.3076 7.56632 100.269 7.68864 100.845 7.79349V4.8753C100.845 3.14535 100.845 2.27164 100.548 1.85226C100.356 1.5552 100.076 1.43288 99.063 1.38046V0.821286H99.1329V0.838759ZM98.6436 19.973C99.6047 19.973 100.251 19.8507 100.898 19.4313V10.2049C100.671 9.97776 99.8318 9.24384 98.1718 9.24384C95.5157 9.24384 94.2051 11.0786 94.2051 14.888C94.1527 16.4782 94.6245 19.973 98.6436 19.973ZM23.2599 20.3924C22.8406 20.9341 21.7746 22 19.5205 22C17.3711 22 16.2004 21.2311 15.6762 19.5012C15.449 18.8546 15.449 17.4917 15.449 16.7053C15.449 14.5211 15.449 12.7387 15.5189 10.6593V9.69817H13.6666V9.15647C14.3656 8.85941 14.9073 8.57982 15.3966 8.19539C16.4625 7.35663 17.1615 6.3606 17.9478 4.8753H18.5244V7.95075H23.2075V9.6807H18.5244V16.915C18.5244 19.0993 18.9438 20.2875 20.9534 20.2875C21.9144 20.2875 22.561 19.9905 22.9105 19.7458L23.2599 20.3924Z" fill="#747474"/>
</svg>
