<svg width="52" height="17" viewBox="0 0 52 17" fill="none" xmlns="http://www.w3.org/2000/svg">
<path d="M0.636 0.211999H1.956V9.704H7.68V11H0.636V0.211999ZM9.95991 7.472C9.95991 7.896 10.0159 8.276 10.1279 8.612C10.2479 8.94 10.4919 9.216 10.8599 9.44C11.2359 9.664 11.7759 9.776 12.4799 9.776C13.2079 9.776 13.7799 9.656 14.1959 9.416C14.6119 9.168 14.8599 8.804 14.9399 8.324H16.3199C16.2159 9.196 15.8119 9.868 15.1079 10.34C14.4039 10.812 13.5279 11.048 12.4799 11.048C10.9199 11.048 9.85991 10.644 9.29991 9.836C8.73991 9.02 8.45991 8.1 8.45991 7.076C8.45991 5.572 8.80791 4.444 9.50391 3.692C10.1999 2.94 11.1919 2.564 12.4799 2.564C13.7759 2.564 14.7639 2.96 15.4439 3.752C16.1319 4.544 16.4759 5.784 16.4759 7.472H9.95991ZM14.9039 6.404C14.8479 5.524 14.6359 4.872 14.2679 4.448C13.9079 4.024 13.3119 3.812 12.4799 3.812C11.6399 3.812 11.0239 4.028 10.6319 4.46C10.2479 4.884 10.0279 5.532 9.97191 6.404H14.9039ZM19.1 6.8L17.348 2.6H18.836L20.228 6.284H21.152L22.496 2.6H23.972L22.28 6.8L24.092 11H22.616L21.152 7.316H20.228L18.716 11H17.228L19.1 6.8ZM35.4226 2.6C35.7666 2.608 36.0506 2.728 36.2746 2.96C36.5066 3.184 36.6226 3.472 36.6226 3.824V4.22C36.8546 3.764 37.1986 3.38 37.6546 3.068C38.1186 2.756 38.6546 2.6 39.2626 2.6C40.1266 2.6 40.8146 2.824 41.3266 3.272C41.8466 3.712 42.1706 4.42 42.2986 5.396H40.8826C40.8826 4.852 40.7306 4.444 40.4266 4.172C40.1306 3.9 39.7466 3.764 39.2746 3.764C38.3786 3.764 37.7106 3.984 37.2706 4.424C36.8386 4.864 36.6226 5.54 36.6226 6.452V11H35.2186V3.764H34.1386V2.6H35.4226ZM43.1601 8.396C43.1601 7.972 43.2721 7.584 43.4961 7.232C43.7201 6.872 44.0401 6.576 44.4561 6.344C44.8721 6.104 45.3521 5.956 45.8961 5.9L49.9761 5.504C49.9761 5.256 49.8961 4.996 49.7361 4.724C49.5761 4.452 49.3001 4.22 48.9081 4.028C48.5241 3.828 48.0081 3.728 47.3601 3.728C46.6081 3.728 45.9881 3.848 45.5001 4.088C45.0201 4.328 44.7441 4.712 44.6721 5.24H43.4001C43.5201 4.384 43.9361 3.724 44.6481 3.26C45.3601 2.796 46.2681 2.564 47.3721 2.564C48.9401 2.564 50.0001 2.88 50.5521 3.512C51.1041 4.136 51.3801 4.908 51.3801 5.828V11H49.9761V8.276C49.8401 8.684 49.5881 9.104 49.2201 9.536C48.8521 9.968 48.4081 10.328 47.8881 10.616C47.3681 10.904 46.8201 11.048 46.2441 11.048C45.2361 11.048 44.4681 10.808 43.9401 10.328C43.4201 9.84 43.1601 9.196 43.1601 8.396ZM44.5641 8.408C44.5641 8.856 44.7041 9.216 44.9841 9.488C45.2641 9.752 45.6881 9.884 46.2561 9.884C46.7361 9.884 47.2121 9.76 47.6841 9.512C48.1641 9.264 48.6041 8.892 49.0041 8.396C49.4041 7.892 49.7241 7.28 49.9641 6.56L46.1361 6.908C45.6241 6.956 45.2321 7.128 44.9601 7.424C44.6961 7.712 44.5641 8.04 44.5641 8.408Z" fill="black"/>
<rect x="25" y="2" width="9" height="9" rx="4.5" fill="#FF6900"/>
</svg>
